# Blender v3.0.1 OBJ File: 'untitled.blend'
# www.blender.org
mtllib trash.mtl
o Cube_Cube.001
v -9.901157 -4.631909 10.800966
v -7.199169 -2.958465 7.070279
v -9.901157 -4.631909 -11.022459
v -7.199169 -2.958465 -7.768503
v 10.427238 -4.631909 10.800966
v 7.639613 -2.958465 7.070279
v 10.427238 -4.631909 -11.022459
v 7.639613 -2.958465 -7.768503
v -9.901157 20.558273 10.800966
v -9.901157 20.558273 -11.022459
v 10.427238 20.558273 -11.022459
v 10.427238 20.558273 10.800966
v -8.228683 -4.631909 -11.022459
v -8.228683 -4.631909 10.800966
v -8.228683 20.558273 8.099792
v -8.228683 20.558273 -11.022459
v 10.427238 -4.631909 -8.798018
v -8.228683 -4.631909 -8.798018
v -8.228683 20.558273 -8.798018
v 10.427238 20.558273 -8.798018
v -9.901157 20.558273 -8.798018
v -9.901157 -4.631909 -8.798018
v 8.669127 -4.631909 10.800966
v 8.669127 -4.631909 -8.798018
v 8.669127 20.558273 -8.798018
v 8.669127 20.558273 10.800966
v 8.669127 20.558273 -11.022459
v 8.669127 -4.631909 -11.022459
v -8.228683 -4.631909 8.099792
v 8.669127 -4.631909 8.099792
v 8.669127 20.558273 8.099792
v -8.228683 20.558273 10.800966
v -9.901157 -4.631909 8.099792
v -9.901157 20.558273 8.099792
v 10.427238 20.558273 8.099792
v 10.427238 -4.631909 8.099792
vt 0.375000 0.000000
vt 0.625000 0.000000
vt 0.625000 0.250000
vt 0.375000 0.250000
vt 0.375000 0.250000
vt 0.625000 0.250000
vt 0.625000 0.500000
vt 0.375000 0.500000
vt 0.375000 0.500000
vt 0.625000 0.500000
vt 0.625000 0.750000
vt 0.375000 0.750000
vt 0.375000 0.750000
vt 0.625000 0.750000
vt 0.625000 1.000000
vt 0.375000 1.000000
vt 0.125000 0.500000
vt 0.375000 0.500000
vt 0.375000 0.750000
vt 0.125000 0.750000
vt 0.640231 0.515231
vt 0.859769 0.515231
vt 0.859769 0.734769
vt 0.640231 0.734769
vt 0.875000 0.500000
vt 0.875000 0.750000
vt 0.625000 0.500000
vt 0.625000 0.750000
vt 0.375000 0.250000
vt 0.375000 0.000000
vt 0.625000 0.000000
vt 0.375000 0.000000
vt 0.375000 0.000000
vt 0.625000 0.000000
vt 0.625000 0.000000
vt 0.625000 0.250000
vt 0.375000 0.250000
vt 0.625000 0.250000
vt 0.375000 0.500000
vt 0.625000 0.500000
vt 0.375000 0.750000
vt 0.625000 0.750000
vt 0.375000 1.000000
vt 0.625000 1.000000
vn -1.0000 0.0000 0.0000
vn 0.0000 0.0000 -1.0000
vn 1.0000 0.0000 0.0000
vn 0.0000 0.0000 1.0000
vn 0.0000 -1.0000 0.0000
vn 0.0000 1.0000 0.0000
vn 0.9990 0.0437 0.0000
vn 0.0000 0.0437 0.9990
vn -0.9990 0.0437 0.0000
vn 0.0000 0.0437 -0.9990
usemtl Material.001
s off
f 33/1/1 34/2/1 21/3/1 22/4/1
f 13/5/2 16/6/2 27/7/2 28/8/2
f 17/9/3 20/10/3 35/11/3 36/12/3
f 23/13/4 26/14/4 32/15/4 14/16/4
f 18/17/5 24/18/5 30/19/5 29/20/5
f 8/21/6 4/22/6 2/23/6 6/24/6
f 2/23/7 4/22/7 19/25/7 15/26/7
f 4/22/8 8/21/8 25/27/8 19/25/8
f 8/21/9 6/24/9 31/28/9 25/27/9
f 6/24/10 2/23/10 15/26/10 31/28/10
f 33/1/5 22/4/5 18/29/5 29/30/5
f 9/31/4 1/32/4 14/33/4 32/34/4
f 21/3/6 34/2/6 15/35/6 19/36/6
f 3/37/2 10/38/2 16/6/2 13/5/2
f 13/5/5 28/8/5 24/18/5 18/29/5
f 27/7/6 16/6/6 19/36/6 25/27/6
f 7/39/3 11/40/3 20/10/3 17/9/3
f 10/38/1 3/37/1 22/4/1 21/3/1
f 3/37/5 13/5/5 18/29/5 22/4/5
f 16/6/6 10/38/6 21/3/6 19/36/6
f 17/9/5 36/12/5 30/19/5 24/18/5
f 35/11/6 20/10/6 25/27/6 31/28/6
f 5/41/4 12/42/4 26/14/4 23/13/4
f 11/40/2 7/39/2 28/8/2 27/7/2
f 7/39/5 17/9/5 24/18/5 28/8/5
f 20/10/6 11/40/6 27/7/6 25/27/6
f 23/13/5 14/16/5 29/43/5 30/19/5
f 32/15/6 26/14/6 31/28/6 15/44/6
f 1/32/1 9/31/1 34/2/1 33/1/1
f 14/33/5 1/32/5 33/1/5 29/30/5
f 9/31/6 32/34/6 15/35/6 34/2/6
f 12/42/3 5/41/3 36/12/3 35/11/3
f 5/41/5 23/13/5 30/19/5 36/12/5
f 26/14/6 12/42/6 35/11/6 31/28/6
o Plane.001_Plane.005
v -6.354964 0.115726 11.490358
v 7.291907 0.115726 11.490358
v -6.354964 13.762597 11.490358
v 7.291907 13.762597 11.490358
vt 0.000000 0.000000
vt 1.000000 0.000000
vt 1.000000 1.000000
vt 0.000000 1.000000
vn 0.0000 0.0000 1.0000
usemtl Material.007
s off
f 37/45/11 38/46/11 40/47/11 39/48/11
