# Blender v3.0.1 OBJ File: 'untitled.blend'
# www.blender.org
mtllib tree.mtl
o Cylinder
v 0.000000 6.531713 -0.630030
v -0.000000 -0.685510 -0.974249
v 0.122913 6.531713 -0.617924
v 0.190066 -0.685510 -0.955529
v 0.241102 6.531713 -0.582072
v 0.372829 -0.685510 -0.900088
v 0.350026 6.531713 -0.523851
v 0.541264 -0.685510 -0.810058
v 0.445498 6.531713 -0.445498
v 0.688898 -0.685510 -0.688898
v 0.523851 6.531713 -0.350026
v 0.810058 -0.685510 -0.541264
v 0.582072 6.531713 -0.241102
v 0.900088 -0.685510 -0.372829
v 0.617924 6.531713 -0.122913
v 0.955529 -0.685510 -0.190067
v 0.630030 6.531713 0.000000
v 0.974249 -0.685510 0.000000
v 0.617924 6.531713 0.122913
v 0.955529 -0.685510 0.190066
v 0.582072 6.531713 0.241102
v 0.900088 -0.685510 0.372829
v 0.523851 6.531713 0.350026
v 0.810058 -0.685510 0.541263
v 0.445498 6.531713 0.445498
v 0.688898 -0.685510 0.688898
v 0.350026 6.531713 0.523851
v 0.541263 -0.685510 0.810058
v 0.241102 6.531713 0.582072
v 0.372829 -0.685510 0.900088
v 0.122913 6.531713 0.617924
v 0.190066 -0.685510 0.955529
v -0.000000 6.531713 0.630030
v -0.000000 -0.685510 0.974249
v -0.122913 6.531713 0.617924
v -0.190066 -0.685510 0.955529
v -0.241102 6.531713 0.582072
v -0.372829 -0.685510 0.900088
v -0.350026 6.531713 0.523851
v -0.541264 -0.685510 0.810058
v -0.445498 6.531713 0.445499
v -0.688898 -0.685510 0.688898
v -0.523851 6.531713 0.350026
v -0.810058 -0.685510 0.541264
v -0.582072 6.531713 0.241102
v -0.900088 -0.685510 0.372829
v -0.617924 6.531713 0.122913
v -0.955529 -0.685510 0.190067
v -0.630030 6.531713 -0.000000
v -0.974249 -0.685510 -0.000000
v -0.617924 6.531713 -0.122913
v -0.955529 -0.685510 -0.190067
v -0.582072 6.531713 -0.241102
v -0.900088 -0.685510 -0.372829
v -0.523851 6.531713 -0.350026
v -0.810058 -0.685510 -0.541263
v -0.445499 6.531713 -0.445498
v -0.688898 -0.685510 -0.688898
v -0.350026 6.531713 -0.523851
v -0.541264 -0.685510 -0.810058
v -0.241102 6.531713 -0.582072
v -0.372829 -0.685510 -0.900088
v -0.122913 6.531713 -0.617924
v -0.190066 -0.685510 -0.955529
v 0.135480 -0.410602 -0.681105
v 0.000000 -0.410602 -0.694449
v 0.265754 -0.410602 -0.641587
v 0.385815 -0.410602 -0.577413
v 0.491049 -0.410602 -0.491049
v 0.577413 -0.410602 -0.385815
v 0.641587 -0.410602 -0.265754
v 0.681105 -0.410602 -0.135480
v 0.694449 -0.410602 0.000000
v 0.681105 -0.410602 0.135480
v 0.641587 -0.410602 0.265754
v 0.577413 -0.410602 0.385815
v 0.491049 -0.410602 0.491049
v 0.385815 -0.410602 0.577413
v 0.265754 -0.410602 0.641587
v 0.135480 -0.410602 0.681105
v -0.000000 -0.410602 0.694449
v -0.135480 -0.410602 0.681105
v -0.265754 -0.410602 0.641587
v -0.385815 -0.410602 0.577413
v -0.491049 -0.410602 0.491050
v -0.577413 -0.410602 0.385815
v -0.641587 -0.410602 0.265754
v -0.681105 -0.410602 0.135480
v -0.694449 -0.410602 -0.000000
v -0.681105 -0.410602 -0.135480
v -0.641587 -0.410602 -0.265754
v -0.577413 -0.410602 -0.385815
v -0.491050 -0.410602 -0.491049
v -0.385815 -0.410602 -0.577413
v -0.265754 -0.410602 -0.641587
v -0.135480 -0.410602 -0.681105
vt 1.000000 0.500000
vt 0.968750 0.500000
vt 0.968750 1.000000
vt 1.000000 1.000000
vt 0.937500 0.500000
vt 0.937500 1.000000
vt 0.906250 0.500000
vt 0.906250 1.000000
vt 0.875000 0.500000
vt 0.875000 1.000000
vt 0.843750 0.500000
vt 0.843750 1.000000
vt 0.812500 0.500000
vt 0.812500 1.000000
vt 0.781250 0.500000
vt 0.781250 1.000000
vt 0.750000 0.500000
vt 0.750000 1.000000
vt 0.718750 0.500000
vt 0.718750 1.000000
vt 0.687500 0.500000
vt 0.687500 1.000000
vt 0.656250 0.500000
vt 0.656250 1.000000
vt 0.625000 0.500000
vt 0.625000 1.000000
vt 0.593750 0.500000
vt 0.593750 1.000000
vt 0.562500 0.500000
vt 0.562500 1.000000
vt 0.531250 0.500000
vt 0.531250 1.000000
vt 0.500000 0.500000
vt 0.500000 1.000000
vt 0.468750 0.500000
vt 0.468750 1.000000
vt 0.437500 0.500000
vt 0.437500 1.000000
vt 0.406250 0.500000
vt 0.406250 1.000000
vt 0.375000 0.500000
vt 0.375000 1.000000
vt 0.343750 0.500000
vt 0.343750 1.000000
vt 0.312500 0.500000
vt 0.312500 1.000000
vt 0.281250 0.500000
vt 0.281250 1.000000
vt 0.250000 0.500000
vt 0.250000 1.000000
vt 0.218750 0.500000
vt 0.218750 1.000000
vt 0.187500 0.500000
vt 0.187500 1.000000
vt 0.156250 0.500000
vt 0.156250 1.000000
vt 0.125000 0.500000
vt 0.125000 1.000000
vt 0.093750 0.500000
vt 0.093750 1.000000
vt 0.062500 0.500000
vt 0.062500 1.000000
vt 0.296822 0.485388
vt 0.341844 0.471731
vt 0.383337 0.449553
vt 0.419706 0.419706
vt 0.449553 0.383337
vt 0.471731 0.341844
vt 0.485388 0.296822
vt 0.490000 0.250000
vt 0.485388 0.203178
vt 0.471731 0.158156
vt 0.449553 0.116663
vt 0.419706 0.080294
vt 0.383337 0.050447
vt 0.341844 0.028269
vt 0.296822 0.014612
vt 0.250000 0.010000
vt 0.203178 0.014612
vt 0.158156 0.028269
vt 0.116663 0.050447
vt 0.080294 0.080294
vt 0.050447 0.116663
vt 0.028269 0.158156
vt 0.014612 0.203178
vt 0.010000 0.250000
vt 0.014612 0.296822
vt 0.028269 0.341844
vt 0.050447 0.383337
vt 0.080294 0.419706
vt 0.116663 0.449553
vt 0.158156 0.471731
vt 0.203178 0.485388
vt 0.250000 0.490000
vt 0.031250 0.500000
vt 0.031250 1.000000
vt 0.000000 0.500000
vt 0.000000 1.000000
vt 0.750000 0.490000
vt 0.703178 0.485388
vt 0.658156 0.471731
vt 0.616663 0.449553
vt 0.580294 0.419706
vt 0.550447 0.383337
vt 0.528269 0.341844
vt 0.514612 0.296822
vt 0.510000 0.250000
vt 0.514612 0.203178
vt 0.528269 0.158156
vt 0.550447 0.116663
vt 0.580294 0.080294
vt 0.616663 0.050447
vt 0.658156 0.028269
vt 0.703178 0.014612
vt 0.750000 0.010000
vt 0.796822 0.014612
vt 0.841844 0.028269
vt 0.883337 0.050447
vt 0.919706 0.080294
vt 0.949553 0.116663
vt 0.971731 0.158156
vt 0.985388 0.203178
vt 0.990000 0.250000
vt 0.985388 0.296822
vt 0.971731 0.341844
vt 0.949553 0.383337
vt 0.919706 0.419706
vt 0.883337 0.449553
vt 0.841844 0.471731
vt 0.796822 0.485388
vt 0.250000 0.490000
vt 0.296822 0.485388
vt 0.341844 0.471731
vt 0.383337 0.449553
vt 0.419706 0.419706
vt 0.449553 0.383337
vt 0.471731 0.341844
vt 0.485388 0.296822
vt 0.490000 0.250000
vt 0.485388 0.203178
vt 0.471731 0.158156
vt 0.449553 0.116663
vt 0.419706 0.080294
vt 0.383337 0.050447
vt 0.341844 0.028269
vt 0.296822 0.014612
vt 0.250000 0.010000
vt 0.203178 0.014612
vt 0.158156 0.028269
vt 0.116663 0.050447
vt 0.080294 0.080294
vt 0.050447 0.116663
vt 0.028269 0.158156
vt 0.014612 0.203178
vt 0.010000 0.250000
vt 0.014612 0.296822
vt 0.028269 0.341844
vt 0.050447 0.383337
vt 0.080294 0.419706
vt 0.116663 0.449553
vt 0.158156 0.471731
vt 0.203178 0.485388
vn 0.0980 0.0092 -0.9951
vn 0.2903 0.0092 -0.9569
vn 0.4714 0.0092 -0.8819
vn 0.6344 0.0092 -0.7730
vn 0.7730 0.0092 -0.6344
vn 0.8819 0.0092 -0.4714
vn 0.9569 0.0092 -0.2903
vn 0.9951 0.0092 -0.0980
vn 0.9951 0.0092 0.0980
vn 0.9569 0.0092 0.2903
vn 0.8819 0.0092 0.4714
vn 0.7730 0.0092 0.6344
vn 0.6344 0.0092 0.7730
vn 0.4714 0.0092 0.8819
vn 0.2903 0.0092 0.9569
vn 0.0980 0.0092 0.9951
vn -0.0980 0.0092 0.9951
vn -0.2903 0.0092 0.9569
vn -0.4714 0.0092 0.8819
vn -0.6344 0.0092 0.7730
vn -0.7730 0.0092 0.6344
vn -0.8819 0.0092 0.4714
vn -0.9569 0.0092 0.2903
vn -0.9951 0.0092 0.0980
vn -0.9951 0.0092 -0.0980
vn -0.9569 0.0092 -0.2903
vn -0.8819 0.0092 -0.4714
vn -0.7730 0.0092 -0.6344
vn -0.6344 0.0092 -0.7730
vn -0.4714 0.0092 -0.8819
vn 0.0000 -1.0000 -0.0000
vn -0.2903 0.0092 -0.9569
vn -0.0980 0.0092 -0.9951
vn 0.0000 1.0000 -0.0000
vn 0.0689 0.7116 -0.6992
vn 0.2039 0.7116 -0.6723
vn 0.3312 0.7116 -0.6196
vn 0.4457 0.7116 -0.5431
vn 0.5431 0.7116 -0.4457
vn 0.6196 0.7116 -0.3312
vn 0.6723 0.7116 -0.2039
vn 0.6992 0.7116 -0.0689
vn 0.6992 0.7116 0.0689
vn 0.6723 0.7116 0.2039
vn 0.6196 0.7116 0.3312
vn 0.5431 0.7116 0.4457
vn 0.4457 0.7116 0.5431
vn 0.3312 0.7116 0.6196
vn 0.2039 0.7116 0.6723
vn 0.0689 0.7116 0.6992
vn -0.0689 0.7116 0.6992
vn -0.2039 0.7116 0.6723
vn -0.3312 0.7116 0.6196
vn -0.4457 0.7116 0.5431
vn -0.5431 0.7116 0.4457
vn -0.6196 0.7116 0.3312
vn -0.6723 0.7116 0.2039
vn -0.6992 0.7116 0.0689
vn -0.6992 0.7116 -0.0689
vn -0.6723 0.7116 -0.2039
vn -0.6196 0.7116 -0.3312
vn -0.5431 0.7116 -0.4457
vn -0.4457 0.7116 -0.5431
vn -0.3312 0.7116 -0.6196
vn -0.2039 0.7116 -0.6723
vn -0.0689 0.7116 -0.6992
usemtl Material.002
s off
f 1/1/1 3/2/1 65/3/1 66/4/1
f 3/2/2 5/5/2 67/6/2 65/3/2
f 5/5/3 7/7/3 68/8/3 67/6/3
f 7/7/4 9/9/4 69/10/4 68/8/4
f 9/9/5 11/11/5 70/12/5 69/10/5
f 11/11/6 13/13/6 71/14/6 70/12/6
f 13/13/7 15/15/7 72/16/7 71/14/7
f 15/15/8 17/17/8 73/18/8 72/16/8
f 17/17/9 19/19/9 74/20/9 73/18/9
f 19/19/10 21/21/10 75/22/10 74/20/10
f 21/21/11 23/23/11 76/24/11 75/22/11
f 23/23/12 25/25/12 77/26/12 76/24/12
f 25/25/13 27/27/13 78/28/13 77/26/13
f 27/27/14 29/29/14 79/30/14 78/28/14
f 29/29/15 31/31/15 80/32/15 79/30/15
f 31/31/16 33/33/16 81/34/16 80/32/16
f 33/33/17 35/35/17 82/36/17 81/34/17
f 35/35/18 37/37/18 83/38/18 82/36/18
f 37/37/19 39/39/19 84/40/19 83/38/19
f 39/39/20 41/41/20 85/42/20 84/40/20
f 41/41/21 43/43/21 86/44/21 85/42/21
f 43/43/22 45/45/22 87/46/22 86/44/22
f 45/45/23 47/47/23 88/48/23 87/46/23
f 47/47/24 49/49/24 89/50/24 88/48/24
f 49/49/25 51/51/25 90/52/25 89/50/25
f 51/51/26 53/53/26 91/54/26 90/52/26
f 53/53/27 55/55/27 92/56/27 91/54/27
f 55/55/28 57/57/28 93/58/28 92/56/28
f 57/57/29 59/59/29 94/60/29 93/58/29
f 59/59/30 61/61/30 95/62/30 94/60/30
f 4/63/31 6/64/31 8/65/31 10/66/31 12/67/31 14/68/31 16/69/31 18/70/31 20/71/31 22/72/31 24/73/31 26/74/31 28/75/31 30/76/31 32/77/31 34/78/31 36/79/31 38/80/31 40/81/31 42/82/31 44/83/31 46/84/31 48/85/31 50/86/31 52/87/31 54/88/31 56/89/31 58/90/31 60/91/31 62/92/31 64/93/31 2/94/31
f 61/61/32 63/95/32 96/96/32 95/62/32
f 63/95/33 1/97/33 66/98/33 96/96/33
f 1/99/34 63/100/34 61/101/34 59/102/34 57/103/34 55/104/34 53/105/34 51/106/34 49/107/34 47/108/34 45/109/34 43/110/34 41/111/34 39/112/34 37/113/34 35/114/34 33/115/34 31/116/34 29/117/34 27/118/34 25/119/34 23/120/34 21/121/34 19/122/34 17/123/34 15/124/34 13/125/34 11/126/34 9/127/34 7/128/34 5/129/34 3/130/34
f 2/94/35 66/131/35 65/132/35 4/63/35
f 4/63/36 65/132/36 67/133/36 6/64/36
f 6/64/37 67/133/37 68/134/37 8/65/37
f 8/65/38 68/134/38 69/135/38 10/66/38
f 10/66/39 69/135/39 70/136/39 12/67/39
f 12/67/40 70/136/40 71/137/40 14/68/40
f 14/68/41 71/137/41 72/138/41 16/69/41
f 16/69/42 72/138/42 73/139/42 18/70/42
f 18/70/43 73/139/43 74/140/43 20/71/43
f 20/71/44 74/140/44 75/141/44 22/72/44
f 22/72/45 75/141/45 76/142/45 24/73/45
f 24/73/46 76/142/46 77/143/46 26/74/46
f 26/74/47 77/143/47 78/144/47 28/75/47
f 28/75/48 78/144/48 79/145/48 30/76/48
f 30/76/49 79/145/49 80/146/49 32/77/49
f 32/77/50 80/146/50 81/147/50 34/78/50
f 34/78/51 81/147/51 82/148/51 36/79/51
f 36/79/52 82/148/52 83/149/52 38/80/52
f 38/80/53 83/149/53 84/150/53 40/81/53
f 40/81/54 84/150/54 85/151/54 42/82/54
f 42/82/55 85/151/55 86/152/55 44/83/55
f 44/83/56 86/152/56 87/153/56 46/84/56
f 46/84/57 87/153/57 88/154/57 48/85/57
f 48/85/58 88/154/58 89/155/58 50/86/58
f 50/86/59 89/155/59 90/156/59 52/87/59
f 52/87/60 90/156/60 91/157/60 54/88/60
f 54/88/61 91/157/61 92/158/61 56/89/61
f 56/89/62 92/158/62 93/159/62 58/90/62
f 58/90/63 93/159/63 94/160/63 60/91/63
f 60/91/64 94/160/64 95/161/64 62/92/64
f 62/92/65 95/161/65 96/162/65 64/93/65
f 64/93/66 96/162/66 66/131/66 2/94/66
o Icosphere
v 0.000000 5.601377 0.000000
v 2.228395 7.303700 1.619005
v -1.094312 7.092189 2.487680
v -2.836081 7.331649 0.344013
v -0.851155 7.303699 -2.619629
v 2.095918 7.109954 -1.805892
v 1.757550 10.366899 2.420772
v -2.228395 10.058183 1.619005
v -2.228395 10.058183 -1.619005
v 0.690755 10.304933 -2.720801
v 2.754443 10.058171 0.000000
v 0.000000 11.760506 0.000000
v -0.467491 5.924539 1.471318
v 1.774910 5.924540 0.742706
v 0.887958 7.162642 2.646907
v 2.619625 7.061904 0.000000
v 1.309809 6.061297 -0.951621
v -1.700656 6.089242 0.344013
v -2.432074 7.159314 1.225508
v -0.500292 6.061296 -1.539768
v -2.119324 7.061903 -1.539773
v 0.504716 6.838785 -2.784248
v 3.127505 8.592266 0.697343
v 2.763695 8.753332 -1.187395
v 1.050595 8.629934 2.913633
v 2.008784 8.592266 2.237138
v -3.179707 8.654577 0.682324
v -1.966018 8.758477 2.451090
v -1.810124 8.680942 -2.491419
v -3.010481 8.708879 -0.607611
v 2.004155 8.671815 -2.386510
v -0.403126 8.654468 -3.443843
v 2.246786 10.459810 1.080166
v -0.025712 10.359377 2.507271
v -2.619625 10.299979 0.000000
v -1.310967 10.470150 -2.784248
v 2.331887 10.387891 -1.377826
v 0.429094 11.549092 1.334443
v 1.619019 11.300578 0.000000
v -1.309809 11.300586 0.951621
v -1.309809 11.300586 -0.951621
v 0.579052 11.556172 -1.214934
vt 0.181819 0.000000
vt 0.227273 0.078731
vt 0.136365 0.078731
vt 0.272728 0.157461
vt 0.318182 0.078731
vt 0.363637 0.157461
vt 0.909091 0.000000
vt 0.954545 0.078731
vt 0.863636 0.078731
vt 0.727273 0.000000
vt 0.772727 0.078731
vt 0.681818 0.078731
vt 0.545455 0.000000
vt 0.590909 0.078731
vt 0.500000 0.078731
vt 0.318182 0.236191
vt 0.090910 0.157461
vt 0.181819 0.157461
vt 0.136365 0.236191
vt 0.818182 0.157461
vt 0.909091 0.157461
vt 0.863636 0.236191
vt 0.636364 0.157461
vt 0.727273 0.157461
vt 0.681818 0.236191
vt 0.454546 0.157461
vt 0.545455 0.157461
vt 0.500000 0.236191
vt 0.227273 0.236191
vt 0.045455 0.236191
vt 0.772727 0.236191
vt 0.590909 0.236191
vt 0.409092 0.236191
vt 0.181819 0.314921
vt 0.272728 0.314921
vt 0.227273 0.393651
vt 0.000000 0.314921
vt 0.090910 0.314921
vt 0.045455 0.393651
vt 0.727273 0.314921
vt 0.818182 0.314921
vt 0.772727 0.393651
vt 0.545455 0.314921
vt 0.636364 0.314921
vt 0.590909 0.393651
vt 0.363637 0.314921
vt 0.454546 0.314921
vt 0.409092 0.393651
vt 0.500000 0.393651
vt 0.454546 0.472382
vt 0.681818 0.393651
vt 0.636364 0.472382
vt 0.863636 0.393651
vt 0.818182 0.472382
vt 0.909091 0.314921
vt 0.136365 0.393651
vt 0.090910 0.472382
vt 0.318182 0.393651
vt 0.272728 0.472382
vt 0.954545 0.236191
vt 1.000000 0.157461
vt 0.409092 0.078731
vt 0.363637 0.000000
vn 0.0771 -0.9684 0.2372
vn 0.8490 -0.4525 0.2727
vn -0.2486 -0.9596 0.1318
vn -0.3048 -0.9352 -0.1803
vn 0.1024 -0.9435 -0.3151
vn 0.8695 -0.4124 0.2717
vn -0.0729 -0.1705 0.9827
vn -0.8840 -0.3174 0.3431
vn -0.5746 -0.3304 -0.7488
vn 0.5374 -0.2659 -0.8003
vn 0.8007 -0.1426 0.5818
vn -0.1537 -0.0588 0.9864
vn -0.9668 -0.2164 -0.1359
vn -0.5383 -0.3016 -0.7869
vn 0.8403 -0.1448 -0.5224
vn 0.5233 0.8154 0.2475
vn -0.3621 0.6345 0.6828
vn -0.7002 0.6617 -0.2680
vn 0.0836 0.7695 -0.6332
vn 0.7366 0.6732 -0.0648
vn 0.2731 0.9615 -0.0315
vn 0.5163 0.8124 -0.2710
vn 0.4226 0.7122 -0.5605
vn -0.1628 0.9574 -0.2386
vn -0.1779 0.8964 -0.4061
vn -0.6821 0.6662 -0.3015
vn -0.3313 0.9435 0.0000
vn -0.6071 0.7947 0.0000
vn -0.7002 0.6617 0.2680
vn -0.1837 0.9600 0.2112
vn -0.2451 0.7265 0.6419
vn 0.0319 0.6955 0.7178
vn 0.2727 0.9599 0.0644
vn 0.5198 0.7938 0.3157
vn 0.7348 0.6715 0.0956
vn 0.9458 0.2223 -0.2369
vn 0.8295 0.1567 -0.5361
vn 0.5896 0.3226 -0.7404
vn 0.0597 0.3671 -0.9283
vn -0.5602 0.0207 -0.8281
vn -0.8007 0.1276 -0.5853
vn -0.9070 0.3250 -0.2677
vn -0.9540 0.2777 -0.1135
vn -0.8711 0.4091 0.2716
vn -0.3869 0.4405 0.8101
vn -0.1442 0.1404 0.9795
vn 0.0458 0.2554 0.9658
vn 0.9329 0.0962 0.3471
vn 0.7828 0.2526 0.5687
vn 0.8885 0.3609 0.2834
vn 0.3977 0.1340 -0.9077
vn 0.3995 -0.1299 -0.9075
vn -0.2555 -0.4404 -0.8607
vn -0.8397 0.0847 -0.5363
vn -0.8346 -0.1519 -0.5295
vn -0.9001 -0.3190 -0.2968
vn -0.8152 0.1865 0.5484
vn -0.8029 -0.1971 0.5625
vn -0.6568 -0.3287 0.6787
vn 0.5767 -0.0029 0.8170
vn 0.5587 -0.2079 0.8029
vn 0.6048 -0.2583 0.7533
vn 0.9710 0.1646 -0.1734
vn 0.9532 -0.2238 -0.2031
vn 0.9224 -0.2714 -0.2747
vn 0.4384 -0.7419 -0.5073
vn 0.1426 -0.8871 -0.4390
vn -0.3120 -0.6719 -0.6717
vn -0.4089 -0.6617 -0.6284
vn -0.5004 -0.8096 -0.3068
vn -0.7260 -0.6634 -0.1812
vn -0.7229 -0.6607 0.2022
vn -0.5138 -0.7267 0.4559
vn -0.5053 -0.7047 0.4980
vn 0.6875 -0.6928 -0.2178
vn 0.6947 -0.6761 -0.2453
vn 0.2345 -0.9617 -0.1420
vn -0.0361 -0.6671 0.7441
vn 0.1939 -0.7787 0.5966
vn 0.5365 -0.5711 0.6213
usemtl Material.001
s off
f 97/163/67 110/164/67 109/165/67
f 98/166/68 110/167/68 112/168/68
f 97/169/69 109/170/69 114/171/69
f 97/172/70 114/173/70 116/174/70
f 97/175/71 116/176/71 113/177/71
f 98/166/72 112/168/72 119/178/72
f 99/179/73 111/180/73 121/181/73
f 100/182/74 115/183/74 123/184/74
f 101/185/75 117/186/75 125/187/75
f 102/188/76 118/189/76 127/190/76
f 98/166/77 119/178/77 122/191/77
f 99/179/78 121/181/78 124/192/78
f 100/182/79 123/184/79 126/193/79
f 101/185/80 125/187/80 128/194/80
f 102/188/81 127/190/81 120/195/81
f 103/196/82 129/197/82 134/198/82
f 104/199/83 130/200/83 136/201/83
f 105/202/84 131/203/84 137/204/84
f 106/205/85 132/206/85 138/207/85
f 107/208/86 133/209/86 135/210/86
f 135/210/87 138/211/87 108/212/87
f 135/210/88 133/209/88 138/211/88
f 133/209/89 106/205/89 138/211/89
f 138/207/90 137/213/90 108/214/90
f 138/207/91 132/206/91 137/213/91
f 132/206/92 105/202/92 137/213/92
f 137/204/93 136/215/93 108/216/93
f 137/204/94 131/203/94 136/215/94
f 131/203/95 104/217/95 136/215/95
f 136/201/96 134/218/96 108/219/96
f 136/201/97 130/200/97 134/218/97
f 130/200/98 103/196/98 134/218/98
f 134/198/99 135/220/99 108/221/99
f 134/198/100 129/197/100 135/220/100
f 129/197/101 107/208/101 135/220/101
f 120/195/102 133/209/102 107/208/102
f 120/195/103 127/190/103 133/209/103
f 127/190/104 106/205/104 133/209/104
f 128/194/105 132/206/105 106/205/105
f 128/194/106 125/187/106 132/206/106
f 125/187/107 105/202/107 132/206/107
f 126/193/108 131/203/108 105/202/108
f 126/193/109 123/184/109 131/203/109
f 123/184/110 104/217/110 131/203/110
f 124/192/111 130/200/111 104/199/111
f 124/192/112 121/181/112 130/200/112
f 121/181/113 103/196/113 130/200/113
f 122/191/114 129/197/114 103/196/114
f 122/191/115 119/178/115 129/197/115
f 119/178/116 107/208/116 129/197/116
f 127/190/117 128/194/117 106/205/117
f 127/190/118 118/189/118 128/194/118
f 118/189/119 101/185/119 128/194/119
f 125/187/120 126/193/120 105/202/120
f 125/187/121 117/186/121 126/193/121
f 117/186/122 100/182/122 126/193/122
f 123/184/123 124/222/123 104/217/123
f 123/184/124 115/183/124 124/222/124
f 115/183/125 99/223/125 124/222/125
f 121/181/126 122/191/126 103/196/126
f 121/181/127 111/180/127 122/191/127
f 111/180/128 98/166/128 122/191/128
f 119/178/129 120/195/129 107/208/129
f 119/178/130 112/168/130 120/195/130
f 112/168/131 102/188/131 120/195/131
f 113/177/132 118/189/132 102/188/132
f 113/177/133 116/176/133 118/189/133
f 116/176/134 101/185/134 118/189/134
f 116/174/135 117/186/135 101/185/135
f 116/174/136 114/173/136 117/186/136
f 114/173/137 100/182/137 117/186/137
f 114/171/138 115/183/138 100/182/138
f 114/171/139 109/170/139 115/183/139
f 109/170/140 99/223/140 115/183/140
f 112/168/141 113/224/141 102/188/141
f 112/168/142 110/167/142 113/224/142
f 110/167/143 97/225/143 113/224/143
f 109/165/144 111/180/144 99/179/144
f 109/165/145 110/164/145 111/180/145
f 110/164/146 98/166/146 111/180/146
